<svg xmlns="http://www.w3.org/2000/svg" version="1.1" xmlns:xlink="http://www.w3.org/1999/xlink" xmlns:svgjs="http://svgjs.dev/svgjs" width="64" height="64"><svg xmlns="http://www.w3.org/2000/svg" viewBox="0 0 64 64">
  <!-- Letter P - Fira Sans -->
  <path d="
    M12 16
    L12 48
    L16 48
    L16 36
    L20 36
    C27 36 30 32 30 26
    C30 20 27 16 20 16
    Z
    M16 20
    L20 20
    C24 20 26 22 26 26
    C26 30 24 32 20 32
    L16 32
    Z
  " fill="#FF8000"></path>
  
  <!-- Letter O - Fira Sans -->
  <path d="
    M39 16
    C33 16 30 22 30 32
    C30 42 33 48 39 48
    C45 48 48 42 48 32
    C48 22 45 16 39 16
    M39 20
    C42 20 44 24 44 32
    C44 40 42 44 39 44
    C36 44 34 40 34 32
    C34 24 36 20 39 20
  " fill="#FF8000"></path>
</svg><style>@media (prefers-color-scheme: light) { :root { filter: none; } }
@media (prefers-color-scheme: dark) { :root { filter: none; } }
</style></svg>